<?xml version="1.0" encoding="UTF-8"?>
<svg xmlns="http://www.w3.org/2000/svg" xmlns:xlink="http://www.w3.org/1999/xlink" width="100pt" height="100pt" viewBox="0 0 100 100" version="1.1">
<g id="surface1">
<path style="fill-rule:nonzero;fill:rgb(100%,100%,100%);fill-opacity:1;stroke-width:22;stroke-linecap:butt;stroke-linejoin:miter;stroke:rgb(0%,0%,0%);stroke-opacity:1;stroke-miterlimit:4;" d="M 231.173 451.91475 C 109.382297 451.91475 10.66925 353.183617 10.66925 231.411 C 10.66925 109.638383 109.382297 10.90725 231.173 10.90725 C 352.945617 10.90725 451.67675 109.638383 451.67675 231.411 C 451.67675 353.183617 352.945617 451.91475 231.173 451.91475 Z M 231.173 451.91475 " transform="matrix(0.215983,0,0,0.215983,0.0706263,0.0192225)"/>
<path style=" stroke:none;fill-rule:nonzero;fill:rgb(0%,0%,0%);fill-opacity:1;" d="M 26.160156 23.785156 C 31.402344 22.257812 53.503906 25.269531 48.988281 46.644531 C 47.34375 54.425781 38.324219 58.214844 33.957031 61.488281 C 23.609375 69.234375 32.519531 87.636719 32.519531 87.636719 C 32.519531 87.636719 27.699219 73.324219 38.433594 66.554688 C 48.3125 60.324219 82.359375 63.25 82.242188 44.035156 C 82.019531 7.214844 24.648438 20.5 26.160156 23.785156 Z M 26.160156 23.785156 "/>
<path style=" stroke:none;fill-rule:nonzero;fill:rgb(0%,0%,0%);fill-opacity:1;" d="M 30.566406 13.257812 L 34.933594 13.257812 L 34.933594 67.386719 L 30.566406 67.386719 Z M 30.566406 13.257812 "/>
</g>
</svg>
